<svg xmlns="http://www.w3.org/2000/svg" viewBox="0 0 240 150" width="240" height="150" role="img">
  <defs><linearGradient id="bg" x1="0" y1="0" x2="1" y2="1">
    <stop offset="0" stop-color="#EAF4EC"></stop><stop offset="1" stop-color="#F4FAF5"></stop>
  </linearGradient></defs>
  <rect width="240" height="150" fill="url(#bg)"></rect>

  <rect x="66" y="34" width="86" height="98" rx="10" fill="#FFFDF9" stroke="#7CB088" stroke-width="2.4"></rect>
  <rect x="76" y="48" width="12" height="12" rx="3" fill="none" stroke="#7CB088" stroke-width="2.2"></rect>
  <path d="M79 54 l3 3 l5 -6" fill="none" stroke="#7CB088" stroke-width="2.2" stroke-linecap="round" stroke-linejoin="round"></path>
  <line x1="94" y1="54" x2="140" y2="54" stroke="#B7B0A6" stroke-width="2.4" stroke-linecap="round"></line>
  <rect x="76" y="72" width="12" height="12" rx="3" fill="none" stroke="#7CB088" stroke-width="2.2"></rect>
  <path d="M79 78 l3 3 l5 -6" fill="none" stroke="#7CB088" stroke-width="2.2" stroke-linecap="round" stroke-linejoin="round"></path>
  <line x1="94" y1="78" x2="140" y2="78" stroke="#B7B0A6" stroke-width="2.4" stroke-linecap="round"></line>
  <rect x="76" y="96" width="12" height="12" rx="3" fill="none" stroke="#7CB088" stroke-width="2.2"></rect>
  <line x1="94" y1="102" x2="132" y2="102" stroke="#B7B0A6" stroke-width="2.4" stroke-linecap="round"></line>
  <g transform="rotate(40 168 96)">
    <rect x="160" y="52" width="16" height="60" rx="4" fill="#FBE9C8" stroke="#D98C9C" stroke-width="2"></rect>
    <path d="M160 112 L168 126 L176 112 Z" fill="#D98C9C"></path>
    <line x1="160" y1="66" x2="176" y2="66" stroke="#D98C9C" stroke-width="2"></line>
  </g>

</svg>